{"title":"The Monuments Men 2014 CAM x264 AC3 TiTAN","uid":9612670,"size":993174903,"categoryP":"video","categoryS":"movies","magnet":"?xt=urn:btih:2a238e910f296bbd3b99a5415bdb99f4a77f5e2f&amp;dn=The+Monuments+Men+2014+CAM+x264+AC3+TiTAN&amp;tr=udp%3A%2F%2Ftracker.openbittorrent.com%3A80&amp;tr=udp%3A%2F%2Fopen.demonii.com%3A1337&amp;tr=udp%3A%2F%2Ftracker.coppersurfer.tk%3A6969&amp;tr=udp%3A%2F%2Fexodus.desync.com%3A6969","seeders":1,"leechers":0,"uploader":"NewSky005","files":6,"time":1392350534,"description":"\n &lt;a href=&quot;\nhttp://www.imdb.com/title/tt2177771/&quot; rel=&quot;nofollow&quot; target=&quot;_NEW&quot;&gt;\nhttp://www.imdb.com/title/tt2177771/&lt;/a&gt;\n\nSource Spanish TS\n\nGeneral\n\nFormat                                   : Matroska\nFormat version                           : Version 2\nFile size                                : 947 MiB\nDuration                                 : 1h 50mn\nOverall bit rate mode                    : Variable\nOverall bit rate                         : 1 194 Kbps\nEncoded date                             : UTC 2014-02-15 01:26:38\nWriting application                      : mkvmerge v6.7.0 ('Back to the Ground') 32bit built on Jan  8 2014 15:03:17\nWriting library                          : libebml v1.3.0 + libmatroska v1.4.1\n\nVideo\nID                                       : 1\nFormat                                   : AVC\nFormat/Info                              : Advanced Video Codec\nFormat profile                           : &lt;a class=&quot;__cf_email__&quot; href=&quot;/cdn-cgi/l/email-protection&quot; data-cfemail=&quot;733b1a141b333f475d42&quot;&gt;[email&amp;#160;protected]&lt;/a&gt;&lt;script cf-hash='f9e31' type=&quot;text/javascript&quot;&gt;\n/* &lt;![CDATA[ */!function(){try{var t=&quot;currentScript&quot;in document?document.currentScript:function(){for(var t=document.getElementsByTagName(&quot;script&quot;),e=t.length;e--;)if(t[e].getAttribute(&quot;cf-hash&quot;))return t[e]}();if(t&amp;&amp;t.previousSibling){var e,r,n,i,c=t.previousSibling,a=c.getAttribute(&quot;data-cfemail&quot;);if(a){for(e=&quot;&quot;,r=parseInt(a.substr(0,2),16),n=2;a.length-n;n+=2)i=parseInt(a.substr(n,2),16)^r,e+=String.fromCharCode(i);e=document.createTextNode(e),c.parentNode.replaceChild(e,c)}}}catch(u){}}();/* ]]&gt; */&lt;/script&gt;\nFormat settings, CABAC                   : Yes\nFormat settings, ReFrames                : 3 frames\nCodec ID                                 : V_MPEG4/ISO/AVC\nDuration                                 : 1h 50mn\nBit rate mode                            : Variable\nBit rate                                 : 978 Kbps\nMaximum bit rate                         : 40.0 Mbps\nWidth                                    : 704 pixels\nHeight                                   : 368 pixels\nDisplay aspect ratio                     : 1.913\nFrame rate mode                          : Constant\nFrame rate                               : 29.970 fps\nColor space                              : YUV\nChroma subsampling                       : 4:2:0\nBit depth                                : 8 bits\nScan type                                : Progressive\nBits/(Pixel*Frame)                       : 0.126\nStream size                              : 776 MiB (82%)\nWriting library                          : x264 core 142 r2389 956c8d8\nDefault                                  : Yes\nForced                                   : No\nColor primaries                          : BT.709\nTransfer characteristics                 : BT.709\nMatrix coefficients                      : BT.709\n\nAudio\nID                                       : 2\nFormat                                   : AC-3\nFormat/Info                              : Audio Coding 3\nMode extension                           : CM (complete main)\nFormat settings, Endianness              : Big\nCodec ID                                 : A_AC3\nDuration                                 : 1h 50mn\nBit rate mode                            : Constant\nBit rate                                 : 192 Kbps\nChannel(s)                               : 2 channels\nChannel positions                        : Front: L R\nSampling rate                            : 48.0 KHz\nBit depth                                : 16 bits\nCompression mode                         : Lossy\nStream size                              : 152 MiB (16%)\nDefault                                  : Yes\nForced                                   : No\n[img]http://i.imgur.com/jOlBnff.png[/img]\n[img]http://i.imgur.com/3edm65R.png[/img]\n[img]http://i.imgur.com/NrNErJ3.png[/img]","torrent":{"xt":"urn:btih:2a238e910f296bbd3b99a5415bdb99f4a77f5e2f","amp;dn":"The+Monuments+Men+2014+CAM+x264+AC3+TiTAN","amp;tr":["udp%3A%2F%2Ftracker.openbittorrent.com%3A80","udp%3A%2F%2Fopen.demonii.com%3A1337","udp%3A%2F%2Ftracker.coppersurfer.tk%3A6969","udp%3A%2F%2Fexodus.desync.com%3A6969"],"infoHash":"2a238e910f296bbd3b99a5415bdb99f4a77f5e2f","infoHashBuffer":{"type":"Buffer","data":[42,35,142,145,15,41,107,189,59,153,165,65,91,219,153,244,167,127,94,47]},"announce":[],"urlList":[]}}